<!-- 由 scripts/build-icons.mjs 從 Figma 產生，請勿手改。
     Figma 元件：Search Bar 內的 icon / 20px（填色風格，非 Lucide）（node 2484:3995） -->
<svg xmlns="http://www.w3.org/2000/svg" viewBox="0 0 20 20"
     fill="currentColor" stroke="none">
  <g transform="translate(1 1)">
    <path d="M13.2101 11.6367C14.2994 10.15 14.7872 8.30687 14.5761 6.47593C14.365 4.64498 13.4704 2.96128 12.0713 1.76167C10.6723 0.562059 8.87195 -0.0649877 7.03049 0.00597697C5.18903 0.0769416 3.44227 0.840684 2.13966 2.14441C0.837055 3.44813 0.0746695 5.19569 0.0050326 7.03745C-0.0646043 8.87922 0.563642 10.6794 1.76408 12.0778C2.96452 13.4762 4.64863 14.3697 6.47947 14.5795C8.31031 14.7894 10.1529 14.3001 11.6385 13.2096H11.6374C11.6704 13.2546 11.7071 13.2977 11.7476 13.339L16.0787 17.6707C16.2896 17.8818 16.5758 18.0004 16.8742 18.0005C17.1726 18.0007 17.4589 17.8822 17.67 17.6712C17.8811 17.4603 17.9997 17.1741 17.9998 16.8756C17.9999 16.5771 17.8815 16.2909 17.6705 16.0797L13.3394 11.7481C13.2992 11.7073 13.256 11.6708 13.2101 11.6367ZM13.5003 7.31172C13.5003 8.12436 13.3403 8.92904 13.0293 9.67982C12.7184 10.4306 12.2626 11.1128 11.6881 11.6874C11.1136 12.262 10.4315 12.7178 9.68081 13.0288C8.93013 13.3398 8.12556 13.4999 7.31304 13.4999C6.50052 13.4999 5.69595 13.3398 4.94528 13.0288C4.1946 12.7178 3.51252 12.262 2.93798 11.6874C2.36344 11.1128 1.90769 10.4306 1.59675 9.67982C1.28581 8.92904 1.12577 8.12436 1.12577 7.31172C1.12577 5.67052 1.77764 4.09655 2.93798 2.93605C4.09832 1.77554 5.67208 1.12358 7.31304 1.12358C8.95401 1.12358 10.5278 1.77554 11.6881 2.93605C12.8484 4.09655 13.5003 5.67052 13.5003 7.31172Z" />
  </g>
</svg>
